# xmcd
#
# Track frame offsets:
#	150
#	18382
#	33109
#	47930
#	62821
#	77008
#	92986
#	109823
#	125039
#	140144
#	156213
#	171878
#	187465
#	200657
#	215654
#	230566
#	253731
#	270969
#	282668
#
# Disc length: 3920 seconds
#
# Revision: 1
# Processed by: cddbd v1.5.2PL0 Copyright (c) Steve Scherf et al.
# Submitted via: audiograbber 1.82.02
#
DISCID=2c0f4e13
DTITLE=Various Artist - Country Radio - April 2012
DYEAR=2012
DGENRE=Country
TTITLE0=Darryl Worley - You Still Got It
TTITLE1=Dirt Drifters - There She Goes
TTITLE2=Easton Corbin - Lovin' You Is Fun
TTITLE3=Thomas Rhett - Something To Do With My Hands
TTITLE4=James Wesley - Walking Contradiction
TTITLE5=McClymonts - I Could Be A Cowboy
TTITLE6=Hunter Hayes - Wanted
TTITLE7=David Nail - Sound Of A Million Dreams, The
TTITLE8=Brad Wolf - Too Many Monday's (Not Enough Saturday Nights)
TTITLE9=Jason Aldean - Fly Over States (PO Clean Edit)
TTITLE10=Sonia Leigh - Bar (PO Clean Edit)
TTITLE11=Kristen Kelly - Ex-Old Man (PO Clean Edit)
TTITLE12=Martin Zellar and Hardways - Seven Shades Of Blue
TTITLE13=Matt Stillwell - Ignition
TTITLE14=Aaron Lewis - Endless Summer
TTITLE15=Elliott Brood - Northern Air
TTITLE16=Kix Brooks (Ft. Joe Walsh) - New To This Town
TTITLE17=Levi Hart - Baby Call Me Up
TTITLE18=Tommy Womack - Play That Cheap Trick, Cheap Trick Play
EXTD=
EXTT0=
EXTT1=
EXTT2=
EXTT3=
EXTT4=
EXTT5=
EXTT6=
EXTT7=
EXTT8=
EXTT9=
EXTT10=
EXTT11=
EXTT12=
EXTT13=
EXTT14=
EXTT15=
EXTT16=
EXTT17=
EXTT18=
PLAYORDER=
